<svg width="30" height="30" viewBox="0 0 30 30" fill="none" xmlns="http://www.w3.org/2000/svg">
<rect width="30" height="30" rx="9" fill="url(#paint0_radial_1458_3926)"/>
<path fill-rule="evenodd" clip-rule="evenodd" d="M24.5487 14.9121L15.6393 8.18973C15.2539 7.9029 14.725 7.9029 14.3396 8.18973L5.43023 14.9121C4.85659 15.3423 4.85659 16.1938 5.43023 16.6241L14.3396 23.3464C14.725 23.6333 15.2539 23.6333 15.6393 23.3464L22.3577 18.2772V19.1845L21.2284 20.036C21.085 20.1436 21.085 20.3676 21.2284 20.4752L22.3577 21.3267V21.7928C22.3577 21.9541 22.4832 22.0796 22.6446 22.0796H22.6804C22.8418 22.0796 22.9672 21.9541 22.9672 21.7928V21.2998L24.0518 20.4752C24.1952 20.3766 24.1952 20.1525 24.0518 20.045L22.9672 19.2204V17.8173L24.5487 16.6241C25.1223 16.1938 25.1223 15.3423 24.5487 14.9121ZM18.6377 16.361L15.4183 18.7845C15.1643 18.9732 14.8158 18.9732 14.5617 18.7845L14.2132 18.5192C14.1483 18.472 14.0655 18.4602 13.9888 18.4956L12.8605 19.0145C12.6833 19.0971 12.6006 19.0204 12.6833 18.8376L13.1145 17.9059C13.1559 17.8116 13.1322 17.6995 13.0495 17.6406L11.3483 16.3551C10.9702 16.072 10.9702 15.5118 11.3483 15.2288L14.5677 12.8052C14.8217 12.6165 15.1702 12.6165 15.4242 12.8052L18.6436 15.2288C19.0098 15.5177 19.0098 16.0779 18.6377 16.361ZM22.9672 20.6814L23.3706 20.3766C23.4423 20.3228 23.4423 20.2063 23.3706 20.1525L22.9672 19.8478L22.7252 19.6685C22.6715 19.6327 22.6087 19.6327 22.5549 19.6685L22.3577 19.8209L21.9096 20.1525C21.8379 20.2063 21.8379 20.3228 21.9096 20.3766L22.3577 20.7082L22.5549 20.8606C22.6087 20.8965 22.6715 20.8965 22.7252 20.8606L22.9672 20.6814Z" fill="#1F6A9C"/>
<path fill-rule="evenodd" clip-rule="evenodd" d="M24.5487 13.9375L15.6393 7.21512C15.2539 6.92829 14.725 6.92829 14.3396 7.21512L5.43023 13.9375C4.85659 14.3677 4.85659 15.2192 5.43023 15.6495L14.3396 22.3718C14.725 22.6586 15.2539 22.6586 15.6393 22.3718L22.3577 17.3026V18.7944L21.2284 19.6459C21.085 19.7534 21.085 19.9775 21.2284 20.0851L22.3577 20.9366V21.4026C22.3577 21.564 22.4832 21.6895 22.6446 21.6895H22.6804C22.8418 21.6895 22.9672 21.564 22.9672 21.4026V20.9097L24.0518 20.0851C24.1952 19.9865 24.1952 19.7624 24.0518 19.6548L22.9672 18.8302V16.8427L24.5487 15.6495C25.1223 15.2192 25.1223 14.3677 24.5487 13.9375ZM18.6377 15.3863L15.4183 17.8099C15.1643 17.9986 14.8158 17.9986 14.5617 17.8099L14.2132 17.5445C14.1483 17.4973 14.0655 17.4855 13.9888 17.5209L12.8605 18.0398C12.6833 18.1224 12.6006 18.0457 12.6833 17.8629L13.1145 16.9313C13.1559 16.8369 13.1322 16.7249 13.0495 16.6659L11.3483 15.3804C10.9702 15.0974 10.9702 14.5372 11.3483 14.2541L14.5677 11.8305C14.8217 11.6418 15.1702 11.6418 15.4242 11.8305L18.6436 14.2541C19.0098 14.5431 19.0098 15.1033 18.6377 15.3863ZM22.9672 20.2912L23.3706 19.9865C23.4423 19.9327 23.4423 19.8162 23.3706 19.7624L22.9672 19.4576L22.7252 19.2784C22.6715 19.2425 22.6087 19.2425 22.5549 19.2784L22.3577 19.4308L21.9096 19.7624C21.8379 19.8162 21.8379 19.9327 21.9096 19.9865L22.3577 20.3181L22.5549 20.4705C22.6087 20.5063 22.6715 20.5063 22.7252 20.4705L22.9672 20.2912Z" fill="#F0F0F0"/>
<defs>
<radialGradient id="paint0_radial_1458_3926" cx="0" cy="0" r="1" gradientUnits="userSpaceOnUse" gradientTransform="translate(15 15) rotate(90) scale(15)">
<stop stop-color="#6DB1DE"/>
<stop offset="1" stop-color="#2073AA"/>
</radialGradient>
</defs>
</svg>
