<svg width="30" height="30" viewBox="0 0 30 30" fill="none" xmlns="http://www.w3.org/2000/svg">
<rect width="30" height="30" rx="9" fill="#2C2C60"/>
<path d="M23.0205 10.201C21.9142 10.7995 21.4608 10.8901 20.3726 11.5068C19.8829 11.797 19.629 11.4705 19.9736 11.0171C20.7535 10.0015 21.6059 9.43923 22.4583 9.04023C22.8935 8.84073 23.4014 9.13091 23.4014 9.62059C23.4014 9.8745 23.2381 10.0921 23.0205 10.201Z" fill="#FF6175"/>
<path d="M19.375 9.60236C19.1574 10.1283 18.7765 10.0376 18.7584 9.45727C18.7584 8.18772 19.0848 7.20836 19.5201 6.37408C19.7377 5.93881 20.3181 5.86626 20.6083 6.24713C20.7534 6.44663 20.7534 6.71867 20.6627 6.93631C20.1549 8.09704 19.8466 8.44163 19.375 9.60236Z" fill="#FF6175"/>
<path d="M17.1077 10.1286C16.1646 9.27624 15.6749 8.36941 15.3666 7.48073C15.2034 7.02732 15.5298 6.53764 16.0195 6.59205C16.2734 6.61018 16.4548 6.79155 16.5636 7.02732C17.0714 8.16991 17.1077 8.64146 17.6337 9.78405C17.8694 10.31 17.5248 10.5276 17.1077 10.1286Z" fill="#FF6175"/>
<path d="M8.0971 20.1934C8.16964 20.1752 8.22405 20.0846 8.18778 20.012C7.82505 18.9601 7.46232 18.1984 7.91573 17.7631C8.26032 17.4185 8.96764 17.4366 9.51174 17.5092C9.67496 17.5273 9.82005 17.3822 9.78378 17.219C9.62055 16.421 9.56614 15.75 9.96515 15.4054C10.346 15.0608 11.2528 15.2784 11.942 15.4598C12.1052 15.4961 12.2322 15.3147 12.1234 15.1877C7.97014 9.63799 7.11773 9.02135 7.24468 8.38658C7.62555 6.50039 14.1184 11.8325 14.7169 12.3403C17.6369 14.8069 19.2691 16.8019 19.2691 16.8019L19.65 16.3122C19.8676 16.0401 20.1034 15.7681 20.3573 15.4961C21.0646 14.7525 21.6994 14.3172 21.8264 14.2265H21.8445C22.1528 14.0089 22.57 13.9907 22.9327 14.2084C23.1503 14.3353 23.3135 14.553 23.368 14.8069C23.4768 15.224 23.3136 15.6411 22.969 15.8769L22.6244 16.1127C21.9896 16.6205 20.6656 17.8719 20.2304 19.4679C20.1215 19.8851 19.7588 20.1752 19.3235 20.2115C19.3054 20.2115 19.2873 20.2115 19.251 20.2115C18.7976 20.2115 18.4167 19.9213 18.2898 19.4861V19.4679C16.8933 16.4754 12.5224 11.0526 9.54801 9.11203C7.62555 7.86062 7.7525 8.6949 8.07896 9.0939C8.40542 9.51104 9.47546 10.3272 13.6831 15.7862C13.7919 15.9313 13.8101 16.149 13.7012 16.3122C13.5743 16.4936 13.3385 16.5298 13.1572 16.4391C12.5405 16.1308 11.4523 15.8044 11.0896 16.1127C10.9627 16.2215 10.745 16.6024 11.2166 17.9626C11.271 18.0896 11.2528 18.2347 11.1803 18.3435C11.0715 18.543 10.8357 18.5974 10.6362 18.5248C10.1828 18.3253 9.38478 18.1802 9.13087 18.4342C9.04019 18.5248 8.80442 18.9238 9.38478 20.3203C9.43919 20.4473 9.42105 20.5924 9.34851 20.7193C9.27596 20.8463 9.14901 20.9188 9.00392 20.9188C8.82255 20.937 8.24219 21.0277 8.11523 21.3541C7.97014 21.6624 8.11523 22.2065 9.62055 23.331C10.1646 23.73 9.58428 24.2378 9.02206 23.8751C7.91573 23.1678 6.755 21.4992 7.04518 20.8463C7.28096 20.3747 7.73437 20.2841 8.0971 20.1934Z" fill="#21DDB9"/>
</svg>
